<?xml version="1.0" encoding="iso-8859-1"?>
<!-- Generator: Adobe Illustrator 19.0.0, SVG Export Plug-In . SVG Version: 6.00 Build 0)  -->
<svg version="1.1" id="Capa_1" xmlns="http://www.w3.org/2000/svg" xmlns:xlink="http://www.w3.org/1999/xlink" x="0px" y="0px"
	 viewBox="0 0 511.938 511.938" style="enable-background:new 0 0 511.938 511.938;" xml:space="preserve">
<g>
	<g>
		<path d="M297.511,312.902c-1.25-1.828-3.773-2.266-5.562-1.016c-1.821,1.25-2.274,3.75-1.016,5.562
			c0.227,0.328,21.419,32.354-25.458,82.816c-2.984-12.67-10.092-36.744-22.09-42.51c-1.985-0.953-4.375-0.125-5.344,1.875
			c-0.953,1.985-0.117,4.375,1.875,5.343c8.968,4.297,16.576,29.402,19.263,44.214c0.265,1.467,1.32,2.655,2.742,3.108
			c0.39,0.11,0.797,0.172,1.195,0.172c1.047,0,2.062-0.406,2.829-1.17C324.203,353.085,298.628,314.511,297.511,312.902z"/>
	</g>
</g>
<g>
	<g>
		<path d="M222.95,238.321c-1.602-1.125-40.182-26.668-98.425,31.586c-1.054,1.047-1.429,2.594-0.992,4.015
			c0.445,1.422,1.64,2.484,3.109,2.75c10.233,1.859,38.073,8.827,43.908,18.653c0.75,1.25,2.079,1.953,3.438,1.953
			c0.695,0,1.406-0.188,2.046-0.563c1.899-1.125,2.524-3.577,1.391-5.483c-6.679-11.249-29.621-17.981-41.869-20.856
			c50.071-46.576,81.489-26.407,82.864-25.462c1.813,1.227,4.296,0.789,5.546-1.031C225.223,242.071,224.77,239.579,222.95,238.321z
			"/>
	</g>
</g>
<g>
	<g>
		<path d="M152.874,383.032c-6.047-6.046-16.584-6.046-22.63-0.016c-0.508,0.516-48.635,53.181-39.597,62.226
			c0.711,0.703,1.976,1.547,3.991,1.547c11.765,0,57.813-40.728,58.228-41.15c3.023-3.016,4.687-7.031,4.687-11.312
			C157.553,390.047,155.889,386.047,152.874,383.032z M147.21,399.983c-5.78,5.781-36.214,30.48-48.462,37.152
			c6.671-12.249,31.371-42.683,37.151-48.463c1.508-1.5,3.514-2.328,5.655-2.328s4.148,0.828,5.664,2.344
			c1.508,1.5,2.336,3.5,2.336,5.64C149.554,396.468,148.726,398.484,147.21,399.983z"/>
	</g>
</g>
<g>
	<g>
		<path d="M169.824,366.065c-7.553-7.562-17.598-11.717-28.277-11.717s-20.716,4.155-28.262,11.717
			c-7.335,7.328-22.365,28.138-33.848,48.978c-15.357,27.856-19.091,45.135-11.412,52.822c2.555,2.546,6.241,3.843,10.951,3.843
			c24.864,0,78.615-36.839,90.871-49.087C185.424,407.029,185.408,381.657,169.824,366.065z M164.192,416.966
			c-12.826,12.811-64.257,46.744-85.216,46.744c-2.515,0-4.296-0.5-5.296-1.5c-3.303-3.312-1.945-16.639,12.764-43.307
			c10.788-19.591,25.513-40.213,32.496-47.182c6.038-6.046,14.06-9.373,22.606-9.373c8.546,0,16.576,3.327,22.623,9.374
			C176.635,384.19,176.651,404.499,164.192,416.966z"/>
	</g>
</g>
<g>
	<g>
		<path d="M469.239,65.914c-8.055-8.069-27.247-7.686-42.495-4.64c-20.981,4.194-40.542,14.123-53.665,27.254l-220.58,220.593
			l5.655,5.655L378.735,94.183c12.037-12.037,30.105-21.177,49.571-25.067c17.958-3.593,31.339-1.484,35.276,2.453
			c4.164,4.164,7.358,16.357,4.539,33.277c-1.82,10.935-7.773,32.183-27.161,51.571L220.38,377.002
			c-1.562,1.562-1.562,4.093,0,5.655c0.78,0.781,1.804,1.172,2.827,1.172c1.024,0,2.047-0.39,2.829-1.171l220.58-220.585
			C482.878,125.812,481.862,78.537,469.239,65.914z"/>
	</g>
</g>
<g>
	<g>
		<path d="M457.927,77.224c-8.046-8.069-33.262-6.273-61.461,10.702c-1.89,1.14-2.499,3.601-1.367,5.491
			c0.75,1.25,2.078,1.938,3.43,1.938c0.703,0,1.414-0.188,2.061-0.571c28.286-17.029,48.143-15.435,51.682-11.904
			c1.562,1.562,4.093,1.562,5.655,0C459.489,81.317,459.489,78.786,457.927,77.224z"/>
	</g>
</g>
<g>
	<g>
		<path d="M259.929,275.218c-1.561-1.562-4.093-1.562-5.655,0l-67.843,67.835c-1.562,1.562-1.562,4.094,0,5.656
			c0.781,0.78,1.805,1.171,2.828,1.171c1.023,0,2.046-0.39,2.827-1.171l67.843-67.836
			C261.491,279.312,261.491,276.78,259.929,275.218z"/>
	</g>
</g>
<g>
	<g>
		<path d="M180.776,331.743l-22.622-22.622c-1.562-1.562-4.093-1.562-5.655,0c-1.562,1.561-1.562,4.093,0,5.655l22.622,22.622
			c0.781,0.781,1.804,1.172,2.827,1.172s2.046-0.391,2.828-1.172C182.338,335.836,182.338,333.305,180.776,331.743z"/>
	</g>
</g>
<g>
	<g>
		<path d="M226.035,377.002l-22.638-22.638c-1.562-1.562-4.093-1.562-5.655,0c-1.562,1.561-1.562,4.093,0,5.655l22.638,22.638
			c0.78,0.781,1.804,1.172,2.827,1.172c1.024,0,2.047-0.39,2.828-1.172C227.597,381.095,227.597,378.564,226.035,377.002z"/>
	</g>
</g>
<g>
	<g>
		<path d="M378.743,156.401c-10.577-10.576-29.021-10.576-39.597,0.008c-5.288,5.288-8.202,12.319-8.202,19.802
			c0,7.476,2.914,14.506,8.202,19.795c5.288,5.288,12.311,8.202,19.794,8.202c7.475,0,14.513-2.922,19.803-8.21
			c5.288-5.289,8.201-12.32,8.201-19.803C386.944,168.719,384.031,161.689,378.743,156.401z M373.087,190.341
			c-7.561,7.562-20.739,7.554-28.285,0.008c-3.781-3.781-5.858-8.803-5.858-14.139c0-5.342,2.077-10.365,5.858-14.146
			c3.781-3.78,8.803-5.866,14.146-5.866c5.342,0,10.358,2.079,14.139,5.857c3.781,3.782,5.859,8.804,5.859,14.139
			C378.946,181.538,376.868,186.56,373.087,190.341z"/>
	</g>
</g>
<g>
	<g>
		<path d="M322.179,212.973c-10.577-10.577-29.027-10.561-39.589,0c-5.288,5.28-8.202,12.311-8.202,19.794
			c0,7.476,2.914,14.506,8.202,19.794c5.281,5.289,12.311,8.202,19.795,8.202c7.475,0,14.506-2.913,19.794-8.202
			c5.288-5.288,8.202-12.319,8.202-19.794C330.381,225.292,327.467,218.262,322.179,212.973z M316.523,246.906
			c-7.569,7.569-20.74,7.554-28.277,0c-3.781-3.781-5.859-8.804-5.859-14.139c0-5.344,2.078-10.367,5.859-14.139
			c3.773-3.781,8.795-5.859,14.139-5.859c5.335,0,10.357,2.078,14.138,5.859c3.78,3.781,5.858,8.804,5.858,14.139
			C322.381,238.102,320.303,243.125,316.523,246.906z"/>
	</g>
</g>
<g>
	<g>
		<path d="M452.1,391.953h-0.086c-2.203,0-3.953,1.797-3.953,3.999c0,2.219,1.828,4,4.039,4c2.203,0,3.999-1.781,3.999-4
			C456.099,393.75,454.303,391.953,452.1,391.953z"/>
	</g>
</g>
<g>
	<g>
		<path d="M140.124,0h-0.086c-2.202,0-3.952,1.789-3.952,3.999c0,2.211,1.828,4,4.038,4c2.203,0,4-1.789,4-4
			C144.124,1.789,142.327,0,140.124,0z"/>
	</g>
</g>
<g>
	<g>
		<path d="M316.102,15.998h-0.086c-2.203,0-3.953,1.789-3.953,3.999c0,2.211,1.828,4,4.039,4c2.203,0,3.999-1.789,3.999-4
			C320.101,17.787,318.305,15.998,316.102,15.998z"/>
	</g>
</g>
<g>
	<g>
		<path d="M20.14,111.986h-0.086c-2.202,0-3.952,1.789-3.952,3.999c0,2.211,1.827,4,4.038,4c2.203,0,4-1.789,4-4
			C24.14,113.775,22.343,111.986,20.14,111.986z"/>
	</g>
</g>
<g>
	<g>
		<path d="M84.124,327.961h-0.086c-2.203,0-3.953,1.781-3.953,4c0,2.202,1.828,3.999,4.039,3.999c2.202,0,3.999-1.797,3.999-3.999
			C88.123,329.742,86.326,327.961,84.124,327.961z"/>
	</g>
</g>
<g>
	<g>
		<path d="M283.699,495.94h-0.086c-2.203,0-3.953,1.781-3.953,3.999c0,2.203,1.828,4,4.039,4c2.204,0,4-1.797,4-4
			C287.699,497.721,285.902,495.94,283.699,495.94z"/>
	</g>
</g>
<g>
	<g>
		<path d="M476.08,503.939h-0.086c-2.202,0-3.952,1.796-3.952,3.999c0,2.219,1.828,4,4.038,4c2.203,0,4-1.781,4-4
			C480.08,505.735,478.283,503.939,476.08,503.939z"/>
	</g>
</g>
<g>
	<g>
		<path d="M388.108,287.967h-0.086c-2.203,0-3.952,1.78-3.952,3.999c0,2.203,1.827,3.999,4.038,3.999c2.203,0,4-1.796,4-3.999
			C392.108,289.747,390.311,287.967,388.108,287.967z"/>
	</g>
</g>
<g>
	<g>
		<path d="M484.088,255.967h-0.086c-2.203,0-3.953,1.789-3.953,3.999c0,2.211,1.828,4,4.039,4c2.202,0,3.999-1.789,3.999-4
			C488.087,257.756,486.29,255.967,484.088,255.967z"/>
	</g>
</g>
<g>
	<g>
		<path d="M436.094,367.941h-0.086c-2.203,0-3.953,1.797-3.953,3.999c0,2.219,1.828,4,4.039,4c2.203,0,3.999-1.782,3.999-4
			C440.093,369.738,438.297,367.941,436.094,367.941z"/>
	</g>
</g>
<g>
	<g>
		<path d="M455.841,335.96c-22.044,0-39.987,17.935-39.995,39.995c0.008,22.044,17.951,39.994,40.003,40.01
			c22.052-0.016,39.987-17.966,39.987-40.01C495.836,353.896,477.893,335.96,455.841,335.96z M455.849,407.967
			c-17.638-0.016-31.995-14.373-32.003-32.012c0.008-17.639,14.357-31.996,31.995-31.996c17.647,0,31.996,14.342,31.996,31.996
			C487.837,393.594,473.488,407.951,455.849,407.967z"/>
	</g>
</g>
<g>
	<g>
		<path d="M467.84,351.958c-6.609,0-11.991,5.374-11.991,11.999c0.008,6.607,5.398,11.998,12.015,11.998
			c3.209,0,6.225-1.25,8.49-3.531c2.257-2.266,3.492-5.28,3.484-8.467C479.838,357.348,474.456,351.958,467.84,351.958z
			 M470.683,366.784c-0.75,0.75-1.749,1.172-2.819,1.172h-0.016c-2.242,0-3.992-1.766-4-4.015c0-2.203,1.789-3.984,3.984-3.984
			c2.21,0,4.007,1.797,4.007,4.015C471.839,365.034,471.433,366.034,470.683,366.784z"/>
	</g>
</g>
<g>
	<g>
		<path d="M359.853,427.948c0-2.203-1.789-3.999-4-3.999c-2.21,0-3.999,1.796-3.999,3.999l0.016,32.012
			c0,2.202,1.789,3.999,3.999,3.999c2.211,0,4-1.797,4-3.999L359.853,427.948z"/>
	</g>
</g>
<g>
	<g>
		<path d="M363.854,439.947h-15.998c-2.211,0-4,1.781-4,4c0,2.202,1.789,3.999,4,3.999h15.998c2.21,0,3.999-1.797,3.999-3.999
			C367.853,441.728,366.064,439.947,363.854,439.947z"/>
	</g>
</g>
<g>
	<g>
		<path d="M195.875,455.945c-2.211,0-4,1.781-4,4v31.995c0,2.203,1.789,4,4,4s3.999-1.797,3.999-4v-31.995
			C199.874,457.726,198.086,455.945,195.875,455.945z"/>
	</g>
</g>
<g>
	<g>
		<path d="M203.866,471.943h-15.99c-2.211,0-4,1.781-4,3.999c0,2.203,1.789,4,4,4h15.99c2.211,0,3.999-1.797,3.999-4
			C207.865,473.724,206.077,471.943,203.866,471.943z"/>
	</g>
</g>
<g>
	<g>
		<path d="M98.677,59.07c-2.211,0-4,1.789-4,3.999l-0.008,31.996c0,2.211,1.789,4,4,4c2.21,0,3.999-1.788,3.999-4l0.008-31.996
			C102.676,60.859,100.887,59.07,98.677,59.07z"/>
	</g>
</g>
<g>
	<g>
		<path d="M106.668,75.069H90.67c-2.211,0-4,1.789-4,3.999c0,2.211,1.789,4,4,4h15.998c2.21,0,3.999-1.789,3.999-4
			C110.667,76.858,108.878,75.069,106.668,75.069z"/>
	</g>
</g>
<g>
	<g>
		<path d="M259.874,31.995c-2.21,0-3.999,1.789-3.999,4l-0.008,31.996c0,2.21,1.789,3.999,3.999,3.999c2.211,0,4-1.788,4-3.999
			l0.008-31.996C263.874,33.784,262.085,31.995,259.874,31.995z"/>
	</g>
</g>
<g>
	<g>
		<path d="M267.865,47.993h-15.99c-2.21,0-3.999,1.789-3.999,4c0,2.21,1.789,3.999,3.999,3.999h15.99c2.211,0,4-1.788,4-3.999
			S270.076,47.993,267.865,47.993z"/>
	</g>
</g>
<g>
	<g>
		<path d="M43.903,215.971c-2.211,0-3.999,1.79-3.999,4l-0.016,31.996c0,2.211,1.788,4,3.999,4s4-1.789,4-4l0.016-31.996
			C47.903,217.76,46.114,215.971,43.903,215.971z"/>
	</g>
</g>
<g>
	<g>
		<path d="M51.902,231.969H35.904c-2.211,0-3.999,1.789-3.999,4s1.788,4,3.999,4h15.998c2.211,0,3.999-1.789,3.999-4
			S54.113,231.969,51.902,231.969z"/>
	</g>
</g>
<g>
	<g>
		<path d="M199.663,120.188c-10.576-10.585-28.996-10.577-39.588,0.008c-5.289,5.28-8.202,12.31-8.202,19.786
			c0.008,7.475,2.921,14.505,8.21,19.794c5.296,5.288,12.326,8.202,19.794,8.202c7.476,0,14.506-2.913,19.786-8.202
			c5.297-5.288,8.21-12.318,8.21-19.794S204.96,125.476,199.663,120.188z M194.009,154.121c-7.546,7.562-20.708,7.562-28.27,0
			c-3.781-3.781-5.858-8.804-5.866-14.139c0-5.335,2.077-10.358,5.858-14.131c3.78-3.781,8.803-5.866,14.146-5.866
			c5.335,0,10.351,2.077,14.132,5.858c3.781,3.781,5.866,8.804,5.866,14.139C199.875,145.318,197.79,150.341,194.009,154.121z"/>
	</g>
</g>
<g>
	<g>
		<path d="M205.328,114.524c-1.562-1.562-4.094-1.562-5.656,0c-1.39,1.382-1.538,3.538-0.469,5.093
			c-0.149,2.57-4.976,11.67-16.505,23.2c-11.523,11.514-20.615,16.342-23.177,16.49c-1.555-1.07-3.703-0.921-5.094,0.469
			c-1.562,1.562-1.562,4.094,0,5.656c1.289,1.288,2.929,1.843,4.781,1.843c9.756,0,25.574-15.232,29.145-18.802
			C192.602,144.223,213.405,122.601,205.328,114.524z"/>
	</g>
</g>
<g>
	<g>
		<path d="M440.96,150.753L384.398,94.19c-1.562-1.562-4.093-1.562-5.655,0c-1.562,1.563-1.562,4.094,0,5.656l56.562,56.563
			c0.781,0.781,1.805,1.172,2.828,1.172c1.024,0,2.046-0.39,2.827-1.173C442.522,154.846,442.522,152.315,440.96,150.753z"/>
	</g>
</g>
<g>
	<g>
		<path d="M209.061,371.347c-1.344-1.344-3.421-1.53-4.968-0.547c-1.078-0.063-7.171-0.282-23.317-16.435
			c-16.17-16.17-16.482-22.357-16.42-23.31c0.984-1.547,0.805-3.61-0.547-4.969c-1.562-1.562-4.093-1.562-5.655,0
			c-3.172,3.172-5.179,11.796,16.967,33.934c14.974,14.982,23.761,18.904,28.863,18.904c2.452,0,4.053-0.906,5.077-1.921
			C210.623,375.441,210.623,372.909,209.061,371.347z"/>
	</g>
</g>
<g>
	<g>
		<path d="M310.868,224.284c-4.546-4.562-12.498-4.562-17.044,0c-1.562,1.57-1.562,4.101,0,5.655c1.561,1.562,4.093,1.562,5.655,0
			c1.546-1.546,4.187-1.546,5.733,0c0.781,0.781,1.805,1.172,2.828,1.172c1.024,0,2.046-0.391,2.828-1.172
			C312.43,228.385,312.43,225.854,310.868,224.284z"/>
	</g>
</g>
<g>
	<g>
		<path d="M367.432,167.721c-4.702-4.703-12.343-4.703-17.045,0c-1.562,1.562-1.562,4.094,0,5.656c1.562,1.562,4.093,1.562,5.655,0
			c1.578-1.578,4.156-1.578,5.734,0c0.781,0.78,1.805,1.171,2.827,1.171c1.023,0,2.047-0.391,2.829-1.171
			C368.994,171.814,368.994,169.283,367.432,167.721z"/>
	</g>
</g>
<g>
</g>
<g>
</g>
<g>
</g>
<g>
</g>
<g>
</g>
<g>
</g>
<g>
</g>
<g>
</g>
<g>
</g>
<g>
</g>
<g>
</g>
<g>
</g>
<g>
</g>
<g>
</g>
<g>
</g>
</svg>
